<mxfile host="app.diagrams.net" agent="Mozilla/5.0 (Windows NT 10.0; Win64; x64) AppleWebKit/537.36 (KHTML, like Gecko) Chrome/129.0.0.0 Safari/537.36" version="24.8.0">
  <diagram name="Page-1" id="9f46799a-70d6-7492-0946-bef42562c5a5">
    <mxGraphModel dx="2206" dy="1188" grid="1" gridSize="10" guides="1" tooltips="1" connect="1" arrows="1" fold="1" page="1" pageScale="1" pageWidth="1100" pageHeight="850" background="none" math="0" shadow="0">
      <root>
        <mxCell id="0" />
        <mxCell id="1" parent="0" />
        <mxCell id="78961159f06e98e8-17" value="Books" style="swimlane;html=1;fontStyle=1;align=center;verticalAlign=top;childLayout=stackLayout;horizontal=1;startSize=26;horizontalStack=0;resizeParent=1;resizeLast=0;collapsible=1;marginBottom=0;swimlaneFillColor=#ffffff;rounded=0;shadow=0;comic=0;labelBackgroundColor=none;strokeWidth=1;fillColor=none;fontFamily=Verdana;fontSize=12" parent="1" vertex="1">
          <mxGeometry x="90" y="83" width="200" height="187" as="geometry">
            <mxRectangle x="90" y="83" width="80" height="30" as="alternateBounds" />
          </mxGeometry>
        </mxCell>
        <mxCell id="78961159f06e98e8-21" value="+ Id: (INT, PRIMARY KEY)" style="text;html=1;strokeColor=none;fillColor=none;align=left;verticalAlign=top;spacingLeft=4;spacingRight=4;whiteSpace=wrap;overflow=hidden;rotatable=0;points=[[0,0.5],[1,0.5]];portConstraint=eastwest;" parent="78961159f06e98e8-17" vertex="1">
          <mxGeometry y="26" width="200" height="26" as="geometry" />
        </mxCell>
        <mxCell id="78961159f06e98e8-23" value="+ Title: (VARCHAR(255))" style="text;html=1;strokeColor=none;fillColor=none;align=left;verticalAlign=top;spacingLeft=4;spacingRight=4;whiteSpace=wrap;overflow=hidden;rotatable=0;points=[[0,0.5],[1,0.5]];portConstraint=eastwest;" parent="78961159f06e98e8-17" vertex="1">
          <mxGeometry y="52" width="200" height="26" as="geometry" />
        </mxCell>
        <mxCell id="78961159f06e98e8-25" value="+ PublicationYear: (YEAR)" style="text;html=1;strokeColor=none;fillColor=none;align=left;verticalAlign=top;spacingLeft=4;spacingRight=4;whiteSpace=wrap;overflow=hidden;rotatable=0;points=[[0,0.5],[1,0.5]];portConstraint=eastwest;" parent="78961159f06e98e8-17" vertex="1">
          <mxGeometry y="78" width="200" height="26" as="geometry" />
        </mxCell>
        <mxCell id="78961159f06e98e8-26" value="+ ISBN: (VARCHAR(13), UNIQUE)" style="text;html=1;strokeColor=none;fillColor=none;align=left;verticalAlign=top;spacingLeft=4;spacingRight=4;whiteSpace=wrap;overflow=hidden;rotatable=0;points=[[0,0.5],[1,0.5]];portConstraint=eastwest;" parent="78961159f06e98e8-17" vertex="1">
          <mxGeometry y="104" width="200" height="26" as="geometry" />
        </mxCell>
        <mxCell id="78961159f06e98e8-30" value="Authors" style="swimlane;html=1;fontStyle=1;align=center;verticalAlign=top;childLayout=stackLayout;horizontal=1;startSize=26;horizontalStack=0;resizeParent=1;resizeLast=0;collapsible=1;marginBottom=0;swimlaneFillColor=#ffffff;rounded=0;shadow=0;comic=0;labelBackgroundColor=none;strokeWidth=1;fillColor=none;fontFamily=Verdana;fontSize=12" parent="1" vertex="1">
          <mxGeometry x="720" y="83" width="200" height="137" as="geometry" />
        </mxCell>
        <mxCell id="78961159f06e98e8-31" value="+ Id: (INT, PRIMARY KEY)" style="text;html=1;strokeColor=none;fillColor=none;align=left;verticalAlign=top;spacingLeft=4;spacingRight=4;whiteSpace=wrap;overflow=hidden;rotatable=0;points=[[0,0.5],[1,0.5]];portConstraint=eastwest;" parent="78961159f06e98e8-30" vertex="1">
          <mxGeometry y="26" width="200" height="26" as="geometry" />
        </mxCell>
        <mxCell id="78961159f06e98e8-32" value="+ FirstName: (VARCHAR(100))" style="text;html=1;strokeColor=none;fillColor=none;align=left;verticalAlign=top;spacingLeft=4;spacingRight=4;whiteSpace=wrap;overflow=hidden;rotatable=0;points=[[0,0.5],[1,0.5]];portConstraint=eastwest;" parent="78961159f06e98e8-30" vertex="1">
          <mxGeometry y="52" width="200" height="26" as="geometry" />
        </mxCell>
        <mxCell id="78961159f06e98e8-33" value="+ LastName: (VARCHAR(100))" style="text;html=1;strokeColor=none;fillColor=none;align=left;verticalAlign=top;spacingLeft=4;spacingRight=4;whiteSpace=wrap;overflow=hidden;rotatable=0;points=[[0,0.5],[1,0.5]];portConstraint=eastwest;" parent="78961159f06e98e8-30" vertex="1">
          <mxGeometry y="78" width="200" height="26" as="geometry" />
        </mxCell>
        <mxCell id="78961159f06e98e8-34" value="+ MiddleName: (VARCHAR(100))" style="text;html=1;strokeColor=none;fillColor=none;align=left;verticalAlign=top;spacingLeft=4;spacingRight=4;whiteSpace=wrap;overflow=hidden;rotatable=0;points=[[0,0.5],[1,0.5]];portConstraint=eastwest;" parent="78961159f06e98e8-30" vertex="1">
          <mxGeometry y="104" width="200" height="26" as="geometry" />
        </mxCell>
        <mxCell id="78961159f06e98e8-43" value="Authorships" style="swimlane;html=1;fontStyle=1;align=center;verticalAlign=top;childLayout=stackLayout;horizontal=1;startSize=26;horizontalStack=0;resizeParent=1;resizeLast=0;collapsible=1;marginBottom=0;swimlaneFillColor=#ffffff;rounded=0;shadow=0;comic=0;labelBackgroundColor=none;strokeWidth=1;fillColor=none;fontFamily=Verdana;fontSize=12" parent="1" vertex="1">
          <mxGeometry x="410" y="83" width="200" height="107" as="geometry" />
        </mxCell>
        <mxCell id="78961159f06e98e8-44" value="+ Id: (INT, PRIMARY KEY)" style="text;html=1;strokeColor=none;fillColor=none;align=left;verticalAlign=top;spacingLeft=4;spacingRight=4;whiteSpace=wrap;overflow=hidden;rotatable=0;points=[[0,0.5],[1,0.5]];portConstraint=eastwest;" parent="78961159f06e98e8-43" vertex="1">
          <mxGeometry y="26" width="200" height="26" as="geometry" />
        </mxCell>
        <mxCell id="78961159f06e98e8-45" value="+ BookId: (INT, FOREIGN KEY)" style="text;html=1;strokeColor=none;fillColor=none;align=left;verticalAlign=top;spacingLeft=4;spacingRight=4;whiteSpace=wrap;overflow=hidden;rotatable=0;points=[[0,0.5],[1,0.5]];portConstraint=eastwest;" parent="78961159f06e98e8-43" vertex="1">
          <mxGeometry y="52" width="200" height="26" as="geometry" />
        </mxCell>
        <mxCell id="78961159f06e98e8-49" value="+ AuthorId: (INT, FOREIGN KEY)" style="text;html=1;strokeColor=none;fillColor=none;align=left;verticalAlign=top;spacingLeft=4;spacingRight=4;whiteSpace=wrap;overflow=hidden;rotatable=0;points=[[0,0.5],[1,0.5]];portConstraint=eastwest;" parent="78961159f06e98e8-43" vertex="1">
          <mxGeometry y="78" width="200" height="26" as="geometry" />
        </mxCell>
        <mxCell id="78961159f06e98e8-56" value="Genres" style="swimlane;html=1;fontStyle=1;align=center;verticalAlign=top;childLayout=stackLayout;horizontal=1;startSize=26;horizontalStack=0;resizeParent=1;resizeLast=0;collapsible=1;marginBottom=0;swimlaneFillColor=#ffffff;rounded=0;shadow=0;comic=0;labelBackgroundColor=none;strokeWidth=1;fillColor=none;fontFamily=Verdana;fontSize=12" parent="1" vertex="1">
          <mxGeometry x="96" y="570" width="190" height="110" as="geometry" />
        </mxCell>
        <mxCell id="78961159f06e98e8-57" value="+ Id: (INT, PRIMARY KEY)" style="text;html=1;strokeColor=none;fillColor=none;align=left;verticalAlign=top;spacingLeft=4;spacingRight=4;whiteSpace=wrap;overflow=hidden;rotatable=0;points=[[0,0.5],[1,0.5]];portConstraint=eastwest;" parent="78961159f06e98e8-56" vertex="1">
          <mxGeometry y="26" width="190" height="26" as="geometry" />
        </mxCell>
        <mxCell id="78961159f06e98e8-58" value="+ Name: (VARCHAR(100))" style="text;html=1;strokeColor=none;fillColor=none;align=left;verticalAlign=top;spacingLeft=4;spacingRight=4;whiteSpace=wrap;overflow=hidden;rotatable=0;points=[[0,0.5],[1,0.5]];portConstraint=eastwest;" parent="78961159f06e98e8-56" vertex="1">
          <mxGeometry y="52" width="190" height="26" as="geometry" />
        </mxCell>
        <mxCell id="78961159f06e98e8-63" value="+ Description: (VARCHAR(500))" style="text;html=1;strokeColor=none;fillColor=none;align=left;verticalAlign=top;spacingLeft=4;spacingRight=4;whiteSpace=wrap;overflow=hidden;rotatable=0;points=[[0,0.5],[1,0.5]];portConstraint=eastwest;" parent="78961159f06e98e8-56" vertex="1">
          <mxGeometry y="78" width="190" height="26" as="geometry" />
        </mxCell>
        <mxCell id="78961159f06e98e8-69" value="BooksGenres" style="swimlane;html=1;fontStyle=1;align=center;verticalAlign=top;childLayout=stackLayout;horizontal=1;startSize=26;horizontalStack=0;resizeParent=1;resizeLast=0;collapsible=1;marginBottom=0;swimlaneFillColor=#ffffff;rounded=0;shadow=0;comic=0;labelBackgroundColor=none;strokeWidth=1;fillColor=none;fontFamily=Verdana;fontSize=12" parent="1" vertex="1">
          <mxGeometry x="96" y="369" width="190" height="104" as="geometry" />
        </mxCell>
        <mxCell id="78961159f06e98e8-70" value="+ Id: (INT, PRIMARY KEY)" style="text;html=1;strokeColor=none;fillColor=none;align=left;verticalAlign=top;spacingLeft=4;spacingRight=4;whiteSpace=wrap;overflow=hidden;rotatable=0;points=[[0,0.5],[1,0.5]];portConstraint=eastwest;" parent="78961159f06e98e8-69" vertex="1">
          <mxGeometry y="26" width="190" height="26" as="geometry" />
        </mxCell>
        <mxCell id="78961159f06e98e8-71" value="+ BookId: (INT, FOREIGN KEY)" style="text;html=1;strokeColor=none;fillColor=none;align=left;verticalAlign=top;spacingLeft=4;spacingRight=4;whiteSpace=wrap;overflow=hidden;rotatable=0;points=[[0,0.5],[1,0.5]];portConstraint=eastwest;" parent="78961159f06e98e8-69" vertex="1">
          <mxGeometry y="52" width="190" height="26" as="geometry" />
        </mxCell>
        <mxCell id="78961159f06e98e8-72" value="+ GenreId: (INT, FOREIGN KEY)" style="text;html=1;strokeColor=none;fillColor=none;align=left;verticalAlign=top;spacingLeft=4;spacingRight=4;whiteSpace=wrap;overflow=hidden;rotatable=0;points=[[0,0.5],[1,0.5]];portConstraint=eastwest;" parent="78961159f06e98e8-69" vertex="1">
          <mxGeometry y="78" width="190" height="26" as="geometry" />
        </mxCell>
        <mxCell id="78961159f06e98e8-82" value="LibrariesBooks" style="swimlane;html=1;fontStyle=1;align=center;verticalAlign=top;childLayout=stackLayout;horizontal=1;startSize=26;horizontalStack=0;resizeParent=1;resizeLast=0;collapsible=1;marginBottom=0;swimlaneFillColor=#ffffff;rounded=0;shadow=0;comic=0;labelBackgroundColor=none;strokeWidth=1;fillColor=none;fontFamily=Verdana;fontSize=12" parent="1" vertex="1">
          <mxGeometry x="100" y="750" width="190" height="160" as="geometry" />
        </mxCell>
        <mxCell id="78961159f06e98e8-83" value="+ Id: (INT, PRIMARY KEY)" style="text;html=1;strokeColor=none;fillColor=none;align=left;verticalAlign=top;spacingLeft=4;spacingRight=4;whiteSpace=wrap;overflow=hidden;rotatable=0;points=[[0,0.5],[1,0.5]];portConstraint=eastwest;" parent="78961159f06e98e8-82" vertex="1">
          <mxGeometry y="26" width="190" height="26" as="geometry" />
        </mxCell>
        <mxCell id="GioSjoz3SA6LobKt7wce-10" value="+ BookId: (INT, FOREIGN KEY)" style="text;html=1;strokeColor=none;fillColor=none;align=left;verticalAlign=top;spacingLeft=4;spacingRight=4;whiteSpace=wrap;overflow=hidden;rotatable=0;points=[[0,0.5],[1,0.5]];portConstraint=eastwest;" vertex="1" parent="78961159f06e98e8-82">
          <mxGeometry y="52" width="190" height="26" as="geometry" />
        </mxCell>
        <mxCell id="78961159f06e98e8-85" value="+ LibraryId: (INT, FOREIGN KEY)" style="text;html=1;strokeColor=none;fillColor=none;align=left;verticalAlign=top;spacingLeft=4;spacingRight=4;whiteSpace=wrap;overflow=hidden;rotatable=0;points=[[0,0.5],[1,0.5]];portConstraint=eastwest;" parent="78961159f06e98e8-82" vertex="1">
          <mxGeometry y="78" width="190" height="26" as="geometry" />
        </mxCell>
        <mxCell id="78961159f06e98e8-86" value="+ TotalCopies: (INT)" style="text;html=1;strokeColor=none;fillColor=none;align=left;verticalAlign=top;spacingLeft=4;spacingRight=4;whiteSpace=wrap;overflow=hidden;rotatable=0;points=[[0,0.5],[1,0.5]];portConstraint=eastwest;" parent="78961159f06e98e8-82" vertex="1">
          <mxGeometry y="104" width="190" height="26" as="geometry" />
        </mxCell>
        <mxCell id="78961159f06e98e8-87" value="+ AvailableCopies: (INT)" style="text;html=1;strokeColor=none;fillColor=none;align=left;verticalAlign=top;spacingLeft=4;spacingRight=4;whiteSpace=wrap;overflow=hidden;rotatable=0;points=[[0,0.5],[1,0.5]];portConstraint=eastwest;" parent="78961159f06e98e8-82" vertex="1">
          <mxGeometry y="130" width="190" height="26" as="geometry" />
        </mxCell>
        <mxCell id="78961159f06e98e8-95" value="Readers" style="swimlane;html=1;fontStyle=1;align=center;verticalAlign=top;childLayout=stackLayout;horizontal=1;startSize=26;horizontalStack=0;resizeParent=1;resizeLast=0;collapsible=1;marginBottom=0;swimlaneFillColor=#ffffff;rounded=0;shadow=0;comic=0;labelBackgroundColor=none;strokeWidth=1;fillColor=none;fontFamily=Verdana;fontSize=12" parent="1" vertex="1">
          <mxGeometry x="700" y="710" width="210" height="186" as="geometry" />
        </mxCell>
        <mxCell id="78961159f06e98e8-96" value="+ Id: (INT, PRIMARY KEY)" style="text;html=1;strokeColor=none;fillColor=none;align=left;verticalAlign=top;spacingLeft=4;spacingRight=4;whiteSpace=wrap;overflow=hidden;rotatable=0;points=[[0,0.5],[1,0.5]];portConstraint=eastwest;" parent="78961159f06e98e8-95" vertex="1">
          <mxGeometry y="26" width="210" height="26" as="geometry" />
        </mxCell>
        <mxCell id="78961159f06e98e8-97" value="+ FirstName: (VARCHAR(100))" style="text;html=1;strokeColor=none;fillColor=none;align=left;verticalAlign=top;spacingLeft=4;spacingRight=4;whiteSpace=wrap;overflow=hidden;rotatable=0;points=[[0,0.5],[1,0.5]];portConstraint=eastwest;" parent="78961159f06e98e8-95" vertex="1">
          <mxGeometry y="52" width="210" height="26" as="geometry" />
        </mxCell>
        <mxCell id="78961159f06e98e8-98" value="+ LastName: (VARCHAR(100))" style="text;html=1;strokeColor=none;fillColor=none;align=left;verticalAlign=top;spacingLeft=4;spacingRight=4;whiteSpace=wrap;overflow=hidden;rotatable=0;points=[[0,0.5],[1,0.5]];portConstraint=eastwest;" parent="78961159f06e98e8-95" vertex="1">
          <mxGeometry y="78" width="210" height="26" as="geometry" />
        </mxCell>
        <mxCell id="78961159f06e98e8-102" value="+ MiddleName: (VARCHAR(100))" style="text;html=1;strokeColor=none;fillColor=none;align=left;verticalAlign=top;spacingLeft=4;spacingRight=4;whiteSpace=wrap;overflow=hidden;rotatable=0;points=[[0,0.5],[1,0.5]];portConstraint=eastwest;" parent="78961159f06e98e8-95" vertex="1">
          <mxGeometry y="104" width="210" height="26" as="geometry" />
        </mxCell>
        <mxCell id="GioSjoz3SA6LobKt7wce-6" value="+ Email: (VARCHAR(255), UNIQUE)" style="text;html=1;strokeColor=none;fillColor=none;align=left;verticalAlign=top;spacingLeft=4;spacingRight=4;whiteSpace=wrap;overflow=hidden;rotatable=0;points=[[0,0.5],[1,0.5]];portConstraint=eastwest;" vertex="1" parent="78961159f06e98e8-95">
          <mxGeometry y="130" width="210" height="26" as="geometry" />
        </mxCell>
        <mxCell id="GioSjoz3SA6LobKt7wce-7" value="+ PhoneNumber: (VARCHAR(15))" style="text;html=1;strokeColor=none;fillColor=none;align=left;verticalAlign=top;spacingLeft=4;spacingRight=4;whiteSpace=wrap;overflow=hidden;rotatable=0;points=[[0,0.5],[1,0.5]];portConstraint=eastwest;" vertex="1" parent="78961159f06e98e8-95">
          <mxGeometry y="156" width="210" height="26" as="geometry" />
        </mxCell>
        <mxCell id="78961159f06e98e8-108" value="Libraries" style="swimlane;html=1;fontStyle=1;align=center;verticalAlign=top;childLayout=stackLayout;horizontal=1;startSize=26;horizontalStack=0;resizeParent=1;resizeLast=0;collapsible=1;marginBottom=0;swimlaneFillColor=#ffffff;rounded=0;shadow=0;comic=0;labelBackgroundColor=none;strokeWidth=1;fillColor=none;fontFamily=Verdana;fontSize=12" parent="1" vertex="1">
          <mxGeometry x="420" y="750" width="180" height="106" as="geometry" />
        </mxCell>
        <mxCell id="78961159f06e98e8-109" value="+ Id: (INT, PRIMARY KEY)" style="text;html=1;strokeColor=none;fillColor=none;align=left;verticalAlign=top;spacingLeft=4;spacingRight=4;whiteSpace=wrap;overflow=hidden;rotatable=0;points=[[0,0.5],[1,0.5]];portConstraint=eastwest;" parent="78961159f06e98e8-108" vertex="1">
          <mxGeometry y="26" width="180" height="26" as="geometry" />
        </mxCell>
        <mxCell id="78961159f06e98e8-110" value="+ Name: (VARCHAR(255))" style="text;html=1;strokeColor=none;fillColor=none;align=left;verticalAlign=top;spacingLeft=4;spacingRight=4;whiteSpace=wrap;overflow=hidden;rotatable=0;points=[[0,0.5],[1,0.5]];portConstraint=eastwest;" parent="78961159f06e98e8-108" vertex="1">
          <mxGeometry y="52" width="180" height="26" as="geometry" />
        </mxCell>
        <mxCell id="GioSjoz3SA6LobKt7wce-9" value="+ Address: (VARCHAR(255))" style="text;html=1;strokeColor=none;fillColor=none;align=left;verticalAlign=top;spacingLeft=4;spacingRight=4;whiteSpace=wrap;overflow=hidden;rotatable=0;points=[[0,0.5],[1,0.5]];portConstraint=eastwest;" vertex="1" parent="78961159f06e98e8-108">
          <mxGeometry y="78" width="180" height="26" as="geometry" />
        </mxCell>
        <mxCell id="GioSjoz3SA6LobKt7wce-4" value="&lt;pre style=&quot;box-sizing: border-box; margin-top: 0px; margin-bottom: 0px; font-family: var(--font-monospace); overflow-x: auto; padding: var(--size-4); line-height: 1.7; border-radius: var(--radius-3); color: rgb(18, 21, 18); text-align: start; font-size: 11px;&quot;&gt;&lt;code style=&quot;box-sizing: border-box; margin: 0px; font-family: inherit; padding: 0px; font-size: inherit; background-color: transparent; border-radius: 0px; line-height: inherit; color: inherit; border-width: 0px;&quot;&gt;&lt;i style=&quot;&quot;&gt;&lt;b&gt;Індекс&lt;/b&gt;&lt;span style=&quot;font-weight: inherit;&quot;&gt;: ISBN&lt;br&gt;&lt;/span&gt;&lt;b&gt;Призначення&lt;/b&gt;&lt;span style=&quot;font-weight: inherit;&quot;&gt;: &lt;/span&gt;&lt;/i&gt;&lt;/code&gt;&lt;i style=&quot;background-color: transparent; color: inherit; font-family: inherit; font-size: inherit; font-weight: inherit; white-space: normal;&quot;&gt;Швидкий пошук&amp;nbsp;&lt;/i&gt;&lt;i style=&quot;background-color: transparent; color: inherit; font-family: inherit; font-size: inherit; font-weight: inherit; white-space: normal;&quot;&gt;за ISBN&lt;/i&gt;&lt;/pre&gt;" style="text;html=1;align=center;verticalAlign=middle;whiteSpace=wrap;rounded=0;" vertex="1" parent="1">
          <mxGeometry x="85" y="30" width="210" height="62" as="geometry" />
        </mxCell>
        <mxCell id="GioSjoz3SA6LobKt7wce-8" value="&lt;pre style=&quot;box-sizing: border-box; margin-top: 0px; margin-bottom: 0px; font-family: var(--font-monospace); overflow-x: auto; padding: var(--size-4); line-height: 1.7; border-radius: var(--radius-3); color: rgb(18, 21, 18); text-align: start; font-size: 11px;&quot;&gt;&lt;code style=&quot;box-sizing: border-box; margin: 0px; font-family: inherit; padding: 0px; font-size: inherit; background-color: transparent; border-radius: 0px; line-height: inherit; color: inherit; border-width: 0px;&quot;&gt;&lt;i style=&quot;&quot;&gt;&lt;b&gt;Індекс&lt;/b&gt;&lt;span style=&quot;font-weight: inherit;&quot;&gt;: Email&lt;br&gt;&lt;/span&gt;&lt;b&gt;Призначення&lt;/b&gt;&lt;span style=&quot;font-weight: inherit;&quot;&gt;: &lt;span style=&quot;white-space: normal;&quot;&gt;Однозначна ідентифікація читача та швидкий пошук&lt;/span&gt;&lt;/span&gt;&lt;/i&gt;&lt;/code&gt;&lt;/pre&gt;" style="text;html=1;align=center;verticalAlign=middle;whiteSpace=wrap;rounded=0;" vertex="1" parent="1">
          <mxGeometry x="700" y="896" width="220" height="62" as="geometry" />
        </mxCell>
        <mxCell id="GioSjoz3SA6LobKt7wce-11" value="&lt;pre style=&quot;box-sizing: border-box; margin-top: 0px; margin-bottom: 0px; font-family: var(--font-monospace); overflow-x: auto; padding: var(--size-4); line-height: 1.7; border-radius: var(--radius-3); color: rgb(18, 21, 18); text-align: start; font-size: 11px;&quot;&gt;&lt;code style=&quot;box-sizing: border-box; margin: 0px; font-family: inherit; padding: 0px; font-size: inherit; background-color: transparent; border-radius: 0px; line-height: inherit; color: inherit; border-width: 0px;&quot;&gt;&lt;i style=&quot;&quot;&gt;&lt;b&gt;Індекс&lt;/b&gt;&lt;span style=&quot;font-weight: inherit;&quot;&gt;: BookId&lt;br&gt;&lt;/span&gt;&lt;b&gt;Призначення&lt;/b&gt;&lt;span style=&quot;font-weight: inherit;&quot;&gt;: &lt;span style=&quot;white-space: normal;&quot;&gt;Швидкий доступ до інформації про кількість примірників/книг&lt;/span&gt;&lt;/span&gt;&lt;/i&gt;&lt;/code&gt;&lt;/pre&gt;" style="text;html=1;align=center;verticalAlign=middle;whiteSpace=wrap;rounded=0;" vertex="1" parent="1">
          <mxGeometry x="100" y="920" width="230" height="62" as="geometry" />
        </mxCell>
        <mxCell id="GioSjoz3SA6LobKt7wce-12" value="Loans" style="swimlane;html=1;fontStyle=1;align=center;verticalAlign=top;childLayout=stackLayout;horizontal=1;startSize=26;horizontalStack=0;resizeParent=1;resizeLast=0;collapsible=1;marginBottom=0;swimlaneFillColor=#ffffff;rounded=0;shadow=0;comic=0;labelBackgroundColor=none;strokeWidth=1;fillColor=none;fontFamily=Verdana;fontSize=12" vertex="1" parent="1">
          <mxGeometry x="400" y="360" width="210" height="210" as="geometry" />
        </mxCell>
        <mxCell id="GioSjoz3SA6LobKt7wce-13" value="+ Id: (INT, PRIMARY KEY)" style="text;html=1;strokeColor=none;fillColor=none;align=left;verticalAlign=top;spacingLeft=4;spacingRight=4;whiteSpace=wrap;overflow=hidden;rotatable=0;points=[[0,0.5],[1,0.5]];portConstraint=eastwest;" vertex="1" parent="GioSjoz3SA6LobKt7wce-12">
          <mxGeometry y="26" width="210" height="26" as="geometry" />
        </mxCell>
        <mxCell id="GioSjoz3SA6LobKt7wce-14" value="+ BookId: (INT, FOREIGN KEY)" style="text;html=1;strokeColor=none;fillColor=none;align=left;verticalAlign=top;spacingLeft=4;spacingRight=4;whiteSpace=wrap;overflow=hidden;rotatable=0;points=[[0,0.5],[1,0.5]];portConstraint=eastwest;" vertex="1" parent="GioSjoz3SA6LobKt7wce-12">
          <mxGeometry y="52" width="210" height="26" as="geometry" />
        </mxCell>
        <mxCell id="GioSjoz3SA6LobKt7wce-15" value="+ ReaderId: (INT, FOREIGN KEY)" style="text;html=1;strokeColor=none;fillColor=none;align=left;verticalAlign=top;spacingLeft=4;spacingRight=4;whiteSpace=wrap;overflow=hidden;rotatable=0;points=[[0,0.5],[1,0.5]];portConstraint=eastwest;" vertex="1" parent="GioSjoz3SA6LobKt7wce-12">
          <mxGeometry y="78" width="210" height="26" as="geometry" />
        </mxCell>
        <mxCell id="GioSjoz3SA6LobKt7wce-16" value="+ LibraryId: (INT, FOREIGN KEY)" style="text;html=1;strokeColor=none;fillColor=none;align=left;verticalAlign=top;spacingLeft=4;spacingRight=4;whiteSpace=wrap;overflow=hidden;rotatable=0;points=[[0,0.5],[1,0.5]];portConstraint=eastwest;" vertex="1" parent="GioSjoz3SA6LobKt7wce-12">
          <mxGeometry y="104" width="210" height="26" as="geometry" />
        </mxCell>
        <mxCell id="GioSjoz3SA6LobKt7wce-17" value="+ LoanDate: (DATE)" style="text;html=1;strokeColor=none;fillColor=none;align=left;verticalAlign=top;spacingLeft=4;spacingRight=4;whiteSpace=wrap;overflow=hidden;rotatable=0;points=[[0,0.5],[1,0.5]];portConstraint=eastwest;" vertex="1" parent="GioSjoz3SA6LobKt7wce-12">
          <mxGeometry y="130" width="210" height="26" as="geometry" />
        </mxCell>
        <mxCell id="GioSjoz3SA6LobKt7wce-18" value="+ DueDate: (DATE)" style="text;html=1;strokeColor=none;fillColor=none;align=left;verticalAlign=top;spacingLeft=4;spacingRight=4;whiteSpace=wrap;overflow=hidden;rotatable=0;points=[[0,0.5],[1,0.5]];portConstraint=eastwest;" vertex="1" parent="GioSjoz3SA6LobKt7wce-12">
          <mxGeometry y="156" width="210" height="26" as="geometry" />
        </mxCell>
        <mxCell id="GioSjoz3SA6LobKt7wce-19" value="+ ReturnDate: (DATE)" style="text;html=1;strokeColor=none;fillColor=none;align=left;verticalAlign=top;spacingLeft=4;spacingRight=4;whiteSpace=wrap;overflow=hidden;rotatable=0;points=[[0,0.5],[1,0.5]];portConstraint=eastwest;" vertex="1" parent="GioSjoz3SA6LobKt7wce-12">
          <mxGeometry y="182" width="210" height="26" as="geometry" />
        </mxCell>
        <mxCell id="GioSjoz3SA6LobKt7wce-20" value="&lt;pre style=&quot;box-sizing: border-box; margin-top: 0px; margin-bottom: 0px; font-family: var(--font-monospace); overflow-x: auto; padding: var(--size-4); line-height: 1.7; border-radius: var(--radius-3); color: rgb(18, 21, 18); text-align: start; font-size: 11px;&quot;&gt;&lt;code style=&quot;box-sizing: border-box; margin: 0px; font-family: inherit; padding: 0px; font-size: inherit; background-color: transparent; border-radius: 0px; line-height: inherit; color: inherit; border-width: 0px;&quot;&gt;&lt;i style=&quot;&quot;&gt;&lt;b&gt;Індекс&lt;/b&gt;&lt;span style=&quot;font-weight: inherit;&quot;&gt;: BookId, ReaderId&lt;br&gt;&lt;/span&gt;&lt;b&gt;Призначення&lt;/b&gt;&lt;span style=&quot;font-weight: inherit;&quot;&gt;: &lt;/span&gt;&lt;span style=&quot;white-space: normal;&quot;&gt;&lt;span style=&quot;font-weight: inherit;&quot;&gt;Оптимізаці запитів для аналізу за книгою та читачем&lt;/span&gt;&lt;br&gt;&lt;b&gt;Тригер: &lt;/b&gt;AFTER INSERT - Оновлення AvailableCopies у Library&lt;/span&gt;&lt;/i&gt;&lt;/code&gt;&lt;/pre&gt;" style="text;html=1;align=center;verticalAlign=middle;whiteSpace=wrap;rounded=0;" vertex="1" parent="1">
          <mxGeometry x="400" y="570" width="220" height="90" as="geometry" />
        </mxCell>
        <mxCell id="GioSjoz3SA6LobKt7wce-21" value="Reservations" style="swimlane;html=1;fontStyle=1;align=center;verticalAlign=top;childLayout=stackLayout;horizontal=1;startSize=26;horizontalStack=0;resizeParent=1;resizeLast=0;collapsible=1;marginBottom=0;swimlaneFillColor=#ffffff;rounded=0;shadow=0;comic=0;labelBackgroundColor=none;strokeWidth=1;fillColor=none;fontFamily=Verdana;fontSize=12" vertex="1" parent="1">
          <mxGeometry x="680" y="380" width="210" height="190" as="geometry" />
        </mxCell>
        <mxCell id="GioSjoz3SA6LobKt7wce-22" value="+ Id: (INT, PRIMARY KEY)" style="text;html=1;strokeColor=none;fillColor=none;align=left;verticalAlign=top;spacingLeft=4;spacingRight=4;whiteSpace=wrap;overflow=hidden;rotatable=0;points=[[0,0.5],[1,0.5]];portConstraint=eastwest;" vertex="1" parent="GioSjoz3SA6LobKt7wce-21">
          <mxGeometry y="26" width="210" height="26" as="geometry" />
        </mxCell>
        <mxCell id="GioSjoz3SA6LobKt7wce-23" value="+ BookId: (INT, FOREIGN KEY)" style="text;html=1;strokeColor=none;fillColor=none;align=left;verticalAlign=top;spacingLeft=4;spacingRight=4;whiteSpace=wrap;overflow=hidden;rotatable=0;points=[[0,0.5],[1,0.5]];portConstraint=eastwest;" vertex="1" parent="GioSjoz3SA6LobKt7wce-21">
          <mxGeometry y="52" width="210" height="26" as="geometry" />
        </mxCell>
        <mxCell id="GioSjoz3SA6LobKt7wce-24" value="+ ReaderId: (INT, FOREIGN KEY)" style="text;html=1;strokeColor=none;fillColor=none;align=left;verticalAlign=top;spacingLeft=4;spacingRight=4;whiteSpace=wrap;overflow=hidden;rotatable=0;points=[[0,0.5],[1,0.5]];portConstraint=eastwest;" vertex="1" parent="GioSjoz3SA6LobKt7wce-21">
          <mxGeometry y="78" width="210" height="26" as="geometry" />
        </mxCell>
        <mxCell id="GioSjoz3SA6LobKt7wce-25" value="+ LibraryId: (INT, FOREIGN KEY)" style="text;html=1;strokeColor=none;fillColor=none;align=left;verticalAlign=top;spacingLeft=4;spacingRight=4;whiteSpace=wrap;overflow=hidden;rotatable=0;points=[[0,0.5],[1,0.5]];portConstraint=eastwest;" vertex="1" parent="GioSjoz3SA6LobKt7wce-21">
          <mxGeometry y="104" width="210" height="26" as="geometry" />
        </mxCell>
        <mxCell id="GioSjoz3SA6LobKt7wce-26" value="+ ReservationDate: (DATE)" style="text;html=1;strokeColor=none;fillColor=none;align=left;verticalAlign=top;spacingLeft=4;spacingRight=4;whiteSpace=wrap;overflow=hidden;rotatable=0;points=[[0,0.5],[1,0.5]];portConstraint=eastwest;" vertex="1" parent="GioSjoz3SA6LobKt7wce-21">
          <mxGeometry y="130" width="210" height="26" as="geometry" />
        </mxCell>
        <mxCell id="GioSjoz3SA6LobKt7wce-27" value="+ ExpiryDate: (DATE)" style="text;html=1;strokeColor=none;fillColor=none;align=left;verticalAlign=top;spacingLeft=4;spacingRight=4;whiteSpace=wrap;overflow=hidden;rotatable=0;points=[[0,0.5],[1,0.5]];portConstraint=eastwest;" vertex="1" parent="GioSjoz3SA6LobKt7wce-21">
          <mxGeometry y="156" width="210" height="24" as="geometry" />
        </mxCell>
        <mxCell id="GioSjoz3SA6LobKt7wce-30" value="" style="endArrow=ERmany;html=1;endSize=12;startArrow=none;startSize=14;startFill=0;edgeStyle=orthogonalEdgeStyle;align=left;verticalAlign=bottom;rounded=0;exitX=1;exitY=0.5;exitDx=0;exitDy=0;endFill=0;entryX=0;entryY=0.5;entryDx=0;entryDy=0;" edge="1" parent="1" source="78961159f06e98e8-21" target="78961159f06e98e8-45">
          <mxGeometry x="-1" y="3" relative="1" as="geometry">
            <mxPoint x="470" y="260" as="sourcePoint" />
            <mxPoint x="410" y="122" as="targetPoint" />
          </mxGeometry>
        </mxCell>
        <mxCell id="GioSjoz3SA6LobKt7wce-31" value="1" style="endArrow=ERmany;html=1;endSize=12;startArrow=none;startSize=14;startFill=0;edgeStyle=orthogonalEdgeStyle;align=left;verticalAlign=bottom;rounded=0;entryX=1;entryY=0.5;entryDx=0;entryDy=0;endFill=0;exitX=0;exitY=0.5;exitDx=0;exitDy=0;" edge="1" parent="1" source="78961159f06e98e8-31" target="78961159f06e98e8-49">
          <mxGeometry x="-1" y="3" relative="1" as="geometry">
            <mxPoint x="700" y="170" as="sourcePoint" />
            <mxPoint x="720" y="120" as="targetPoint" />
            <mxPoint as="offset" />
          </mxGeometry>
        </mxCell>
        <mxCell id="GioSjoz3SA6LobKt7wce-34" value="" style="endArrow=ERmany;html=1;endSize=12;startArrow=baseDash;startSize=14;startFill=0;edgeStyle=orthogonalEdgeStyle;align=left;verticalAlign=bottom;rounded=0;exitX=0.5;exitY=1;exitDx=0;exitDy=0;endFill=0;" edge="1" parent="1" source="78961159f06e98e8-17">
          <mxGeometry x="-1" y="3" relative="1" as="geometry">
            <mxPoint x="590" y="460" as="sourcePoint" />
            <mxPoint x="190" y="368" as="targetPoint" />
          </mxGeometry>
        </mxCell>
        <mxCell id="GioSjoz3SA6LobKt7wce-35" value="" style="endArrow=ERmany;html=1;endSize=12;startArrow=baseDash;startSize=14;startFill=0;edgeStyle=orthogonalEdgeStyle;align=left;verticalAlign=bottom;rounded=0;exitX=0.5;exitY=0;exitDx=0;exitDy=0;endFill=0;entryX=0.5;entryY=1;entryDx=0;entryDy=0;entryPerimeter=0;" edge="1" parent="1" source="78961159f06e98e8-56" target="78961159f06e98e8-72">
          <mxGeometry x="-1" y="3" relative="1" as="geometry">
            <mxPoint x="320" y="590" as="sourcePoint" />
            <mxPoint x="320" y="683" as="targetPoint" />
          </mxGeometry>
        </mxCell>
        <mxCell id="GioSjoz3SA6LobKt7wce-36" value="" style="endArrow=ERmany;html=1;endSize=12;startArrow=baseDash;startSize=14;startFill=0;edgeStyle=orthogonalEdgeStyle;align=left;verticalAlign=bottom;rounded=0;exitX=1;exitY=0.75;exitDx=0;exitDy=0;endFill=0;entryX=0.25;entryY=0;entryDx=0;entryDy=0;" edge="1" parent="1" source="78961159f06e98e8-17" target="GioSjoz3SA6LobKt7wce-12">
          <mxGeometry x="-1" y="3" relative="1" as="geometry">
            <mxPoint x="200" y="280" as="sourcePoint" />
            <mxPoint x="200" y="378" as="targetPoint" />
          </mxGeometry>
        </mxCell>
        <mxCell id="GioSjoz3SA6LobKt7wce-37" value="" style="endArrow=ERmany;html=1;endSize=12;startArrow=baseDash;startSize=14;startFill=0;edgeStyle=orthogonalEdgeStyle;align=left;verticalAlign=bottom;rounded=0;exitX=1;exitY=0.75;exitDx=0;exitDy=0;endFill=0;entryX=0.25;entryY=0;entryDx=0;entryDy=0;" edge="1" parent="1" target="GioSjoz3SA6LobKt7wce-21">
          <mxGeometry x="-1" y="3" relative="1" as="geometry">
            <mxPoint x="290" y="250" as="sourcePoint" />
            <mxPoint x="453" y="387" as="targetPoint" />
          </mxGeometry>
        </mxCell>
        <mxCell id="GioSjoz3SA6LobKt7wce-38" value="" style="endArrow=ERmany;html=1;endSize=12;startArrow=baseDash;startSize=14;startFill=0;edgeStyle=orthogonalEdgeStyle;align=left;verticalAlign=bottom;rounded=0;exitX=0;exitY=0.5;exitDx=0;exitDy=0;endFill=0;entryX=0.75;entryY=0;entryDx=0;entryDy=0;" edge="1" parent="1" source="78961159f06e98e8-34" target="GioSjoz3SA6LobKt7wce-12">
          <mxGeometry x="-1" y="3" relative="1" as="geometry">
            <mxPoint x="310" y="243" as="sourcePoint" />
            <mxPoint x="473" y="380" as="targetPoint" />
          </mxGeometry>
        </mxCell>
        <mxCell id="GioSjoz3SA6LobKt7wce-42" value="" style="endArrow=ERmany;html=1;endSize=12;startArrow=baseDash;startSize=14;startFill=0;edgeStyle=orthogonalEdgeStyle;align=left;verticalAlign=bottom;rounded=0;exitX=0;exitY=0.5;exitDx=0;exitDy=0;endFill=0;entryX=1;entryY=0.5;entryDx=0;entryDy=0;" edge="1" parent="1" source="78961159f06e98e8-109" target="78961159f06e98e8-83">
          <mxGeometry x="-1" y="3" relative="1" as="geometry">
            <mxPoint x="201" y="580" as="sourcePoint" />
            <mxPoint x="201" y="483" as="targetPoint" />
          </mxGeometry>
        </mxCell>
        <mxCell id="GioSjoz3SA6LobKt7wce-43" value="" style="endArrow=ERmany;html=1;endSize=12;startArrow=baseDash;startSize=14;startFill=0;edgeStyle=orthogonalEdgeStyle;align=left;verticalAlign=bottom;rounded=0;exitX=0;exitY=0.75;exitDx=0;exitDy=0;endFill=0;entryX=0;entryY=0.5;entryDx=0;entryDy=0;" edge="1" parent="1" source="78961159f06e98e8-17" target="GioSjoz3SA6LobKt7wce-10">
          <mxGeometry x="-1" y="3" relative="1" as="geometry">
            <mxPoint x="211" y="590" as="sourcePoint" />
            <mxPoint x="211" y="493" as="targetPoint" />
          </mxGeometry>
        </mxCell>
        <mxCell id="GioSjoz3SA6LobKt7wce-44" value="" style="endArrow=ERmany;html=1;endSize=12;startArrow=baseDash;startSize=14;startFill=0;edgeStyle=orthogonalEdgeStyle;align=left;verticalAlign=bottom;rounded=0;endFill=0;entryX=1;entryY=0.5;entryDx=0;entryDy=0;" edge="1" parent="1" target="GioSjoz3SA6LobKt7wce-19">
          <mxGeometry x="-1" y="3" relative="1" as="geometry">
            <mxPoint x="760" y="700" as="sourcePoint" />
            <mxPoint x="221" y="503" as="targetPoint" />
            <Array as="points">
              <mxPoint x="761" y="700" />
              <mxPoint x="761" y="660" />
              <mxPoint x="630" y="660" />
              <mxPoint x="630" y="555" />
            </Array>
          </mxGeometry>
        </mxCell>
        <mxCell id="GioSjoz3SA6LobKt7wce-45" value="" style="endArrow=ERmany;html=1;endSize=12;startArrow=baseDash;startSize=14;startFill=0;edgeStyle=orthogonalEdgeStyle;align=left;verticalAlign=bottom;rounded=0;exitX=0.75;exitY=0;exitDx=0;exitDy=0;endFill=0;" edge="1" parent="1" source="78961159f06e98e8-95">
          <mxGeometry x="-1" y="3" relative="1" as="geometry">
            <mxPoint x="231" y="610" as="sourcePoint" />
            <mxPoint x="858" y="570" as="targetPoint" />
          </mxGeometry>
        </mxCell>
      </root>
    </mxGraphModel>
  </diagram>
</mxfile>
